<svg width="46" height="47" viewBox="0 0 46 47" fill="none" xmlns="http://www.w3.org/2000/svg">
<g opacity="0.3">
<path d="M23.2433 23.5933C23.6149 23.5933 23.9333 23.4318 24.1987 23.1627L45.4304 3.78505C46.1204 3.19295 46.1735 2.17027 45.6427 1.52435C45.0588 0.824604 44.0503 0.770764 43.4134 1.30903L43.3603 1.36284L23.1902 19.7716L3.02018 1.36284C2.38323 0.770751 1.37473 0.770771 0.790859 1.41669C0.206989 2.06261 0.206989 3.08533 0.843938 3.67742L0.897017 3.73123L22.1287 23.1088C22.3941 23.4856 22.8187 23.6471 23.2433 23.5933Z" fill="#0033A1" fill-opacity="0.15"/>
<path d="M23.2436 34.9374C23.6151 34.9374 23.9336 34.7759 24.199 34.5068L45.4306 15.1293C46.1206 14.5372 46.1737 13.5145 45.6429 12.8686C45.0591 12.1688 44.0506 12.115 43.4136 12.6533L43.3605 12.7071L23.1905 31.1157L3.02042 12.7071C2.38348 12.115 1.37497 12.115 0.791103 12.7609C0.207233 13.4068 0.207233 14.4296 0.844182 15.0216L0.897261 15.0755L22.1289 34.453C22.3943 34.8298 22.8189 34.9912 23.2436 34.9374Z" fill="#0033A1" fill-opacity="0.36"/>
<path d="M23.2436 46.2408C23.6151 46.2408 23.9336 46.0793 24.199 45.8102L45.4306 26.4325C46.1206 25.8404 46.1737 24.8177 45.6429 24.1718C45.0591 23.4721 44.0506 23.4182 43.4136 23.9565L43.3605 24.0103L23.1905 42.4191L3.02042 24.0103C2.38348 23.4182 1.37497 23.4182 0.791103 24.0642C0.207233 24.7101 0.207233 25.7328 0.844182 26.3249L0.897261 26.3787L22.1289 45.7564C22.3943 46.1332 22.8189 46.2947 23.2436 46.2408Z" fill="#0033A1" fill-opacity="0.44"/>
</g>
</svg>
