<svg width="105" height="60" viewBox="0 0 105 60" fill="none" xmlns="http://www.w3.org/2000/svg">
<g filter="url(#filter0_d)">
<rect x="9" y="6" width="87" height="42" rx="21" fill="white"/>
</g>
<circle cx="34.5" cy="28.5" r="14.5" fill="url(#paint0_linear)"/>
<path d="M65.412 20.6V36H63.828V22.008H60.198V20.6H65.412ZM79.6092 34.592V36H68.8072V34.878L75.2092 28.608C76.0159 27.816 76.5586 27.134 76.8372 26.562C77.1306 25.9753 77.2772 25.3887 77.2772 24.802C77.2772 23.8927 76.9619 23.1887 76.3312 22.69C75.7152 22.1767 74.8279 21.92 73.6692 21.92C71.8652 21.92 70.4646 22.492 69.4672 23.636L68.3452 22.668C68.9466 21.964 69.7092 21.4213 70.6332 21.04C71.5719 20.6587 72.6279 20.468 73.8012 20.468C75.3706 20.468 76.6099 20.842 77.5192 21.59C78.4432 22.3233 78.9052 23.3353 78.9052 24.626C78.9052 25.418 78.7292 26.1807 78.3772 26.914C78.0252 27.6473 77.3579 28.4907 76.3752 29.444L71.1392 34.592H79.6092Z" fill="#7E7E7E"/>
<path d="M34.3498 36.3124C34.4098 36.3424 34.4398 36.3424 34.4998 36.3424C34.5598 36.3424 34.5898 36.3424 34.6498 36.3124C34.9498 36.1324 42 32.0823 42 27.3422C42 25.0321 40.11 23.1421 37.7999 23.1421C36.5099 23.1421 35.3099 23.7421 34.4998 24.7621C33.6898 23.7421 32.4898 23.1421 31.1997 23.1421C28.8897 23.1421 26.9996 25.0321 26.9996 27.3422C26.9996 32.0823 34.0498 36.1324 34.3498 36.3124Z" fill="white"/>
<defs>
<filter id="filter0_d" x="0" y="0" width="105" height="60" filterUnits="userSpaceOnUse" color-interpolation-filters="sRGB">
<feFlood flood-opacity="0" result="BackgroundImageFix"/>
<feColorMatrix in="SourceAlpha" type="matrix" values="0 0 0 0 0 0 0 0 0 0 0 0 0 0 0 0 0 0 127 0"/>
<feOffset dy="3"/>
<feGaussianBlur stdDeviation="4.5"/>
<feColorMatrix type="matrix" values="0 0 0 0 0 0 0 0 0 0 0 0 0 0 0 0 0 0 0.06 0"/>
<feBlend mode="normal" in2="BackgroundImageFix" result="effect1_dropShadow"/>
<feBlend mode="normal" in="SourceGraphic" in2="effect1_dropShadow" result="shape"/>
</filter>
<linearGradient id="paint0_linear" x1="34.5" y1="14" x2="34.5" y2="43" gradientUnits="userSpaceOnUse">
<stop stop-color="#FF9C7D"/>
<stop offset="1" stop-color="#A10000"/>
</linearGradient>
</defs>
</svg>
