<svg width="26" height="26" viewBox="0 0 26 26" fill="none" xmlns="http://www.w3.org/2000/svg">
<path d="M18.0003 7.3C13.7003 3 8.00029 0.4 1.90029 0C1.40029 0 0.900293 0.4 0.800293 0.9C0.800293 1.5 1.20029 1.9 1.70029 2C7.30029 2.3 12.6003 4.7 16.5003 8.7C20.5003 12.7 22.8003 17.9 23.2003 23.5C23.2003 24 23.7003 24.4 24.2003 24.4C24.2003 24.4 24.2003 24.4 24.3003 24.4C24.9003 24.4 25.3003 23.9 25.2003 23.3C24.9003 17.3 22.3003 11.6 18.0003 7.3Z" fill="#0033A1" fill-opacity="0.16"/>
<path d="M1.40039 8C5.50039 8.3 9.40039 10 12.4004 12.9C15.3004 15.8 17.1004 19.7 17.3004 23.9C17.3004 24.4 17.8004 24.8 18.3004 24.8C18.3004 24.8 18.3004 24.8 18.4004 24.8C19.0004 24.8 19.4004 24.3 19.3004 23.7C19.0004 19.1 17.0004 14.7 13.8004 11.5C10.5004 8.2 6.20039 6.3 1.50039 6C0.900391 6 0.500391 6.4 0.400391 6.9C0.400391 7.5 0.900391 8 1.40039 8Z" fill="#0033A1" fill-opacity="0.16"/>
<path d="M1 14.0004C3.7 14.2004 6.2 15.3004 8.1 17.2004C10 19.1004 11.1 21.6004 11.3 24.3004C11.3 24.8004 11.8 25.2004 12.3 25.2004C12.3 25.2004 12.3 25.2004 12.4 25.2004C13 25.2004 13.4 24.7004 13.3 24.1004C13.1 20.9004 11.8 18.0004 9.5 15.7004C7.3 13.5004 4.3 12.1004 1.1 11.9004C0.5 11.9004 0.1 12.3004 0 12.8004C0.1 13.5004 0.5 13.9004 1 14.0004Z" fill="#0033A1" fill-opacity="0.16"/>
</svg>
