<svg width="199" height="297" viewBox="0 0 199 297" fill="none" xmlns="http://www.w3.org/2000/svg">
    <path fill-rule="evenodd" clip-rule="evenodd" d="M4.61756 3.25023C4.92755 2.54972 4.75519 1.80331 3.79058 1.71158C3.30827 1.6657 3.09005 1.4016 2.60774 1.35572C2.38951 1.09162 2.38953 1.09164 2.4354 0.60933L2.69949 0.391113C5.11104 0.620489 7.25847 1.06806 9.71589 0.815121C11.5992 1.48093 13.0921 1.13626 15.0213 1.31975C15.9859 1.41149 16.7323 1.23915 17.4328 1.5491C18.3974 1.64086 19.6261 1.51438 20.5908 1.60614C21.7736 1.96197 23.0023 1.8355 24.231 1.70904C24.9774 1.5367 25.942 1.62844 27.1249 1.98427C27.6072 2.03015 27.8254 2.29425 28.0895 2.07603C29.3641 1.46726 30.7651 2.08719 32.4303 2.4889C33.6131 2.84473 35.2782 3.24645 36.7252 3.38409C38.3903 3.7858 40.0554 4.18749 41.4565 4.80743C42.6393 5.16328 43.8221 5.51912 45.0509 5.39266C45.5332 5.43852 46.2795 5.26615 46.716 5.79435C50.965 7.17183 55.214 8.54933 59.4631 9.92681C61.8287 10.6385 64.1485 11.8325 66.4683 13.0265C67.1688 13.3364 67.387 13.6005 68.0876 13.9105C70.235 14.3581 72.3366 15.288 74.4382 16.2179C79.1695 17.6412 83.6368 19.2828 88.0581 21.4067C88.7586 21.7167 89.4592 22.0266 90.1597 22.3366C92.2613 23.2665 94.1446 23.9323 96.2003 25.3445C97.3373 26.1827 98.7842 26.3203 99.9212 27.1584C101.058 27.9966 101.931 29.0529 103.114 29.4088C107.271 31.7509 110.854 35.0117 114.483 37.7903C116.493 39.6848 118.767 41.3611 120.559 42.9915C122.132 44.3578 123.396 46.4247 125.187 48.0551C126.497 49.6397 128.07 51.006 129.333 53.0728C130.379 54.8756 131.206 56.4143 132.251 58.2171C132.469 58.4811 132.641 59.2275 132.86 59.4916C133.514 60.2839 134.433 60.858 134.869 61.3861C135.524 62.1784 135.432 63.143 136.087 63.9353C137.66 65.3017 138.441 67.3226 139.004 69.0795C140.176 72.111 141.348 75.1425 143.002 78.2198C143.438 78.748 143.61 79.4944 143.783 80.2408C144.69 83.4905 146.08 86.7861 146.988 90.0358C148.068 94.0319 148.929 97.7639 149.527 101.714C149.699 102.46 149.826 103.689 149.998 104.436C150.825 105.974 151.124 107.949 150.941 109.879C150.895 110.361 151.067 111.107 151.021 111.59C150.975 112.072 151.412 112.6 151.366 113.082C151.446 114.793 151.527 116.504 151.872 117.997C151.952 119.708 152.779 121.247 152.642 122.694C152.55 123.659 152.941 124.669 153.113 125.415C153.63 127.655 153.929 129.63 153.699 132.041C153.596 135.682 153.976 139.368 154.619 142.836C154.573 143.318 155.01 143.846 154.746 144.064C154.298 146.212 154.597 148.187 154.678 149.898C154.586 150.862 154.758 151.609 154.448 152.309C154.265 154.239 154.345 155.95 153.944 157.615C153.898 158.097 153.852 158.579 153.806 159.062C153.668 160.509 153.267 162.174 153.129 163.621C153.256 164.849 152.854 166.515 152.498 167.697C152.05 169.845 151.557 172.475 151.109 174.622C150.662 176.77 150.26 178.435 149.812 180.582C149.502 181.283 149.411 182.247 149.101 182.948C148.481 184.349 148.079 186.014 148.16 187.725C148.378 187.989 148.114 188.207 147.85 188.426C146.874 191.009 146.645 193.421 145.451 195.741C143.993 198.279 143.235 201.127 141.995 203.929C139.515 209.533 136.817 214.873 133.373 220.386C131.341 223.842 129.091 227.035 126.404 229.7C125.876 230.136 125.302 231.055 124.992 231.755C124.682 232.456 124.418 232.674 123.889 233.11C123.625 233.329 123.625 233.329 123.361 233.547C122.431 235.648 120.1 237.13 119.389 239.496C119.607 239.76 119.825 240.024 120.307 240.07C121.318 239.679 122.283 239.771 123.293 239.38C125.796 238.645 130.321 237.129 133.042 236.658C133.788 236.485 134.053 236.267 134.799 236.095C135.545 235.922 136.074 235.486 136.82 235.314C139.806 234.624 142.527 234.153 145.34 232.717C147.097 232.154 148.544 232.292 150.255 232.211C151.002 232.039 151.702 232.349 152.448 232.177C154.906 231.924 157.582 231.935 159.729 232.383C160.912 232.738 162.359 232.876 163.542 233.232C164.024 233.278 164.506 233.324 164.724 233.588C165.379 234.38 166.562 234.736 167.526 234.828C168.009 234.873 168.709 235.183 169.674 235.275C170.156 235.321 170.593 235.849 171.029 236.377C171.466 236.906 171.684 237.17 172.648 237.261C174.095 237.399 175.278 237.755 176.943 238.157C178.126 238.512 178.827 238.822 179.7 239.879C180.354 240.671 181.273 241.245 182.456 241.601C183.156 241.911 184.075 242.485 184.776 242.795C185.476 243.105 186.177 243.415 187.095 243.989C189.243 244.436 190.162 245.011 191.563 245.63C192.263 245.94 192.918 246.733 193.882 246.824C195.283 247.444 196.202 248.018 197.293 249.339C197.511 249.603 197.948 250.131 198.166 250.395C198.166 250.395 198.12 250.878 197.856 251.096C197.592 251.314 197.592 251.314 197.328 251.532C196.846 251.486 196.582 251.705 195.835 251.877C192.276 253.485 188.371 253.6 184.903 254.244C183.146 254.807 181.435 254.887 179.506 254.704C177.095 254.474 174.855 254.992 172.398 255.244C171.697 254.934 171.169 255.371 170.687 255.325C167.529 255.268 164.808 255.739 161.385 255.9C158.446 256.107 155.506 256.314 152.52 257.004C151.292 257.13 149.799 257.475 148.306 257.82C145.803 258.555 143.081 259.026 140.842 259.543C135.836 261.014 130.393 261.956 125.604 263.691C124.33 264.299 122.619 264.38 121.298 265.471C121.034 265.689 120.816 265.425 120.552 265.643C117.084 266.287 114.052 267.459 110.803 268.366C110.056 268.538 109.792 268.757 109.046 268.929C106.807 269.446 104.786 270.227 102.765 271.008C101.754 271.399 100.744 271.789 99.4691 272.398C98.7227 272.571 98.1945 273.007 97.4481 273.179C96.4376 273.57 95.163 274.179 94.1525 274.569C93.4061 274.742 92.8779 275.178 92.1315 275.35C89.8465 276.35 87.2973 277.567 85.0122 278.567C82.7272 279.566 80.178 280.783 77.8929 281.783C76.136 282.346 75.0797 283.219 73.3228 283.781C72.5764 283.954 72.2664 284.654 71.7382 285.091C69.752 288.065 67.7198 291.522 65.2513 294.451C64.9872 294.669 64.6772 295.369 64.4131 295.588C63.8849 296.024 63.3568 296.46 62.6562 296.15C62.1739 296.105 61.6916 296.059 61.4734 295.795C60.9911 295.749 60.7729 295.485 60.5547 295.221C59.2912 293.154 57.4996 291.523 56.7185 289.502C56.1556 287.745 55.5927 285.988 55.7762 284.059C56.132 282.876 56.0056 281.648 55.8791 280.419C55.3621 278.18 55.8097 276.032 56.2572 273.885C56.3031 273.403 56.6131 272.702 56.659 272.22C56.7048 271.737 56.7507 271.255 57.0148 271.037C58.1629 269.199 58.6105 267.052 59.2763 265.169C60.1603 263.549 60.562 261.884 60.7455 259.955C61.0555 259.254 60.8832 258.508 60.929 258.026C60.8026 256.797 61.3766 255.878 61.9507 254.96C62.4788 254.523 62.5247 254.041 62.8347 253.34C63.2823 251.193 64.2122 249.091 64.6598 246.944C65.3714 244.578 66.0372 242.695 66.9671 240.593C69.7568 234.288 71.6278 227.41 73.7169 220.795C74.7845 217.246 75.852 213.698 77.1377 210.413C77.5394 208.748 78.4235 207.129 78.3429 205.418C79.2728 203.316 79.0198 200.859 79.6856 198.976C80.489 195.645 80.8102 192.269 81.6136 188.939C82.0153 187.274 81.8888 186.045 82.2906 184.38C82.6464 183.197 82.5199 181.968 83.094 181.05C83.7139 179.649 83.8515 178.202 83.9891 176.755C84.1726 174.826 84.8385 172.942 86.6871 171.415C87.2153 170.978 87.2612 170.496 87.5711 169.795C87.6629 168.831 87.5364 167.602 87.6281 166.637C87.674 166.155 87.7199 165.673 88.0299 164.972C88.2939 164.754 88.558 164.536 88.7763 164.8C90.4761 167.395 91.6937 169.944 92.6471 172.712C93.21 174.468 93.7729 176.225 94.0717 178.2C94.4164 179.693 94.5429 180.922 94.8876 182.415C95.7034 186.629 95.9911 191.28 96.0605 195.666C96.2329 196.413 95.9229 197.113 95.877 197.596C95.4294 199.743 95.51 201.454 95.3265 203.383C95.1319 207.988 94.6732 212.811 93.9962 217.37C93.5945 219.036 93.1928 220.701 93.0551 222.148C92.6534 223.813 92.734 225.524 92.0682 227.407C91.4483 228.808 91.5289 230.519 90.6448 232.138C90.3349 232.839 90.2431 233.804 90.1514 234.768C90.1514 234.768 90.1055 235.251 90.5878 235.296C90.8061 235.56 91.0701 235.342 91.0701 235.342C91.3342 235.124 91.5983 234.906 91.8624 234.688C92.4365 233.769 93.2287 233.114 93.8028 232.195C94.3769 231.277 95.215 230.14 96.0073 229.485C96.7996 228.83 97.8559 227.958 98.2118 226.775C99.7963 225.465 100.462 223.582 101.828 222.009C102.931 220.654 103.769 219.517 104.871 218.161C107.121 214.969 109.59 212.04 111.576 209.066C111.84 208.847 112.369 208.411 112.414 207.929C112.943 207.492 112.988 207.01 113.517 206.574C114.355 205.437 114.975 204.036 115.859 202.416C116.433 201.498 116.743 200.797 117.317 199.878C117.627 199.178 117.937 198.477 118.465 198.041C119.831 196.467 120.233 194.802 121.599 193.229C122.392 192.574 122.483 191.61 122.793 190.909C123.769 188.325 125.009 185.523 125.985 182.939C126.96 180.355 127.936 177.771 128.912 175.187C128.958 174.705 129.268 174.005 129.314 173.522C129.67 172.34 129.807 170.893 130.163 169.71C130.519 168.527 130.656 167.08 130.53 165.851C130.449 164.14 130.587 162.693 130.989 161.028C131.218 158.617 131.712 155.987 131.677 153.794C131.642 151.6 131.872 149.189 132.055 147.259C132.112 144.101 132.169 140.944 132.49 137.567C132.536 137.085 132.318 136.821 132.582 136.603C132.984 134.938 132.903 133.227 132.822 131.516C132.742 129.805 132.661 128.094 133.063 126.428C133.109 125.946 132.937 125.2 132.982 124.717C133.028 124.235 132.592 123.707 132.856 123.489C132.994 122.042 132.431 120.285 131.868 118.528C131.132 116.025 130.615 113.785 130.363 111.328C130.19 110.582 130.236 110.099 130.328 109.135C130.465 107.688 130.075 106.677 129.466 105.403C129.03 104.875 129.076 104.392 128.903 103.646C128.604 101.671 127.823 99.6498 127.789 97.4564C127.789 97.4564 127.834 96.9741 127.616 96.71C126.617 94.4249 126.628 91.7493 125.629 89.4642C125.238 88.4537 125.066 87.7073 124.675 86.6968C123.239 83.8836 122.55 80.898 121.378 77.8665C121.252 76.6378 120.597 75.8455 119.988 74.5709C118.461 72.7223 117.462 70.4372 116.681 68.4162C115.681 66.1312 114.636 64.3284 113.373 62.2615C112.764 60.987 111.845 60.4129 110.972 59.3565C110.582 58.346 109.927 57.5538 109.536 56.5433C108.273 54.4764 106.964 52.8919 105.654 51.3073C104.081 49.941 103.036 48.1382 101.244 46.5078C99.9348 44.9233 98.3614 43.5569 96.788 42.1906C95.6511 41.3524 94.56 40.032 93.159 39.4121C92.9407 39.148 92.6766 39.3662 92.4584 39.1021C90.4486 37.2076 88.1288 36.0136 85.809 34.8196C83.9715 33.6715 82.1799 32.0411 79.8601 30.8471C79.3778 30.8012 78.9414 30.273 78.7232 30.0089C78.505 29.7448 78.2868 29.4807 77.8044 29.4349C75.9211 28.7691 74.3018 27.885 72.4643 26.7369C70.6268 25.5888 68.7435 24.923 67.1242 24.039C66.4237 23.729 65.7232 23.419 64.7586 23.3273C62.4388 22.1333 59.809 21.6398 57.7533 20.2276C57.5351 19.9635 56.8346 19.6536 56.3523 19.6077C53.7684 18.6319 51.6668 17.702 49.0829 16.7263C48.6006 16.6804 48.3824 16.4163 47.6819 16.1063C44.5698 15.567 41.5495 14.063 38.7015 13.3055C35.6353 12.2839 32.7873 11.5263 29.4571 10.7229C28.9748 10.677 28.4924 10.6311 28.2742 10.367C25.9086 9.65535 23.3247 8.67957 20.9131 8.45022C18.0193 8.17496 15.2172 6.9351 12.3692 6.17755C11.8869 6.13167 11.6687 5.86757 10.9223 6.03991C7.76435 5.98289 5.18047 5.00713 2.28661 4.73187C1.8043 4.68599 1.32201 4.64014 1.10378 4.37604L0.885582 4.11197L1.14967 3.89375C1.67785 3.45731 2.16015 3.50317 2.68833 3.06674C2.516 2.32035 2.03368 2.27447 1.81546 2.01037C2.34364 1.57394 2.82596 1.61982 3.52649 1.92979C3.21651 2.6303 3.91705 2.94028 4.61756 3.25023C4.61756 3.25023 4.35347 3.46845 4.08938 3.68667C3.82529 3.90489 3.77942 4.3872 4.26173 4.43308C4.96225 4.74303 5.44456 4.78891 6.45506 4.39836C5.75452 4.08838 5.3181 3.56021 4.61756 3.25023Z" fill="#FBBC04"/>
</svg>
