<svg width="105" height="60" viewBox="0 0 105 60" fill="none" xmlns="http://www.w3.org/2000/svg">
<g filter="url(#filter0_d)">
<rect x="9" y="6" width="87" height="42" rx="21" fill="white"/>
</g>
<circle cx="34.5" cy="28.5" r="14.5" fill="url(#paint0_linear)"/>
<path d="M34.3497 36.3126C34.4097 36.3426 34.4397 36.3426 34.4997 36.3426C34.5597 36.3426 34.5897 36.3426 34.6497 36.3126C34.9497 36.1326 41.9999 32.0825 41.9999 27.3424C41.9999 25.0323 40.1099 23.1422 37.7998 23.1422C36.5098 23.1422 35.3097 23.7423 34.4997 24.7623C33.6897 23.7423 32.4897 23.1422 31.1996 23.1422C28.8896 23.1422 26.9995 25.0323 26.9995 27.3424C26.9995 32.0825 34.0497 36.1326 34.3497 36.3126Z" fill="white"/>
<defs>
<filter id="filter0_d" x="0" y="0" width="105" height="60" filterUnits="userSpaceOnUse" color-interpolation-filters="sRGB">
<feFlood flood-opacity="0" result="BackgroundImageFix"/>
<feColorMatrix in="SourceAlpha" type="matrix" values="0 0 0 0 0 0 0 0 0 0 0 0 0 0 0 0 0 0 127 0"/>
<feOffset dy="3"/>
<feGaussianBlur stdDeviation="4.5"/>
<feColorMatrix type="matrix" values="0 0 0 0 0 0 0 0 0 0 0 0 0 0 0 0 0 0 0.06 0"/>
<feBlend mode="normal" in2="BackgroundImageFix" result="effect1_dropShadow"/>
<feBlend mode="normal" in="SourceGraphic" in2="effect1_dropShadow" result="shape"/>
</filter>
<linearGradient id="paint0_linear" x1="34.5" y1="14" x2="34.5" y2="43" gradientUnits="userSpaceOnUse">
<stop stop-color="#FF9C7D"/>
<stop offset="1" stop-color="#A10000"/>
</linearGradient>
</defs>
</svg>
