<svg width="156" height="156" viewBox="0 0 156 156" fill="none" xmlns="http://www.w3.org/2000/svg">
<path d="M81.6959 87.443L88.2189 81.0314C89.0981 80.168 89.6784 79.0543 89.8776 77.8486C90.0767 76.6428 89.8845 75.4061 89.3283 74.3137L88.9585 73.5867C88.4058 72.496 88.2156 71.2623 88.4146 70.0596C88.6137 68.8569 89.1919 67.7462 90.0679 66.8839L98.1443 58.9302C98.2818 58.794 98.4454 58.686 98.6256 58.6122C98.8059 58.5384 98.9991 58.5 99.1944 58.5C99.3897 58.5 99.5831 58.5384 99.7634 58.6122C99.9436 58.686 100.107 58.794 100.245 58.9302C100.355 59.0404 100.445 59.1686 100.511 59.3086L103.78 65.7352C104.998 68.1302 105.419 70.8412 104.984 73.4845C104.549 76.1277 103.279 78.5692 101.354 80.4641L83.6039 97.9121C81.4953 99.9853 78.8407 101.44 75.938 102.113C73.0352 102.786 69.9992 102.65 67.1704 101.722L60.0261 99.3952C59.8413 99.3345 59.6705 99.2384 59.5236 99.1127C59.3766 98.9869 59.2563 98.8341 59.1697 98.6625C59.0831 98.491 59.0319 98.3042 59.0189 98.113C59.0059 97.9219 59.0315 97.73 59.0942 97.5486C59.1663 97.3352 59.2878 97.1408 59.4492 96.9814L67.3036 89.2754C68.1808 88.4144 69.3108 87.846 70.5343 87.6503C71.7578 87.4547 73.013 87.6416 74.1226 88.1849L74.8622 88.5484C75.9749 89.0933 77.2339 89.28 78.4606 89.0816C79.6873 88.8833 80.8194 88.3096 81.6959 87.443Z" fill="#0033A1"/>
<path opacity="0.44" d="M84.8637 61.8977L84.2868 67.7137C82.1173 67.5071 79.9281 67.7747 77.876 68.4967C75.8238 69.2188 73.9595 70.3774 72.4161 71.8903C70.8728 73.4033 69.6885 75.2331 68.9483 77.2484C68.2081 79.2636 67.9301 81.4147 68.1343 83.5478L62.2176 84.0853C61.9278 81.0943 62.3151 78.0777 63.3517 75.2513C64.3884 72.4249 66.0487 69.8588 68.2136 67.7378C70.3784 65.6168 72.9941 63.9937 75.8728 62.9839C78.7515 61.9741 81.822 61.603 84.8637 61.8977ZM85.8991 50.2658L85.3518 56.0817C81.4576 55.7238 77.5311 56.2138 73.8512 57.5166C70.1714 58.8193 66.8287 60.9029 64.061 63.6193C61.2932 66.3358 59.1683 69.6184 57.8374 73.2336C56.5064 76.8487 56.002 80.7076 56.3602 84.5361L50.4435 85.0742C50.0017 80.3877 50.6174 75.6635 52.2468 71.2379C53.8761 66.8122 56.479 62.7942 59.8696 59.4711C63.2602 56.1479 67.355 53.6009 71.862 52.0123C76.369 50.4236 81.1772 49.832 85.9435 50.28L85.8991 50.2658Z" fill="#0033A1"/>
<circle cx="78" cy="78" r="74.5" stroke="#0033A1" stroke-width="7"/>
</svg>
