<svg width="156" height="156" viewBox="0 0 156 156" fill="none" xmlns="http://www.w3.org/2000/svg">
<circle cx="78" cy="78" r="74.5" stroke="#0033A1" stroke-width="7"/>
<path d="M121.703 105.019C119.707 102.947 117.686 100.917 115.656 98.8792C115.55 98.7758 115.465 98.6517 115.408 98.5144C115.351 98.3771 115.323 98.2295 115.325 98.0809C115.325 96.1955 115.325 94.3017 115.325 92.4163V55.2272C115.325 54.3713 114.985 53.5504 114.38 52.9452C113.775 52.34 112.954 52 112.098 52H48.5054C47.6359 52 46.8021 52.3454 46.1874 52.9601C45.5726 53.5749 45.2272 54.4087 45.2272 55.2781L45.5839 98.2083C45.5621 98.4773 45.441 98.7285 45.2442 98.9132C43.206 100.96 41.1677 103.007 39.1635 105.087C38.7378 105.591 38.349 106.124 38 106.684V107.287C38.3457 108.301 38.9876 109.189 39.8429 109.835C40.0039 109.939 40.1822 110.014 40.3694 110.055C40.4567 110.068 40.5454 110.068 40.6327 110.055H120.293C120.637 110.066 120.971 109.944 121.228 109.716C122.004 109.075 122.591 108.236 122.926 107.287V106.684C122.557 106.102 122.149 105.545 121.703 105.019ZM69.2783 107.244L72.9726 103.754H88.3527L91.6478 107.075L69.2783 107.244ZM111.886 93.5119H49.0404V56.2463H111.886V93.5119Z" fill="#0033A1"/>
<rect x="77.0654" y="64.9004" width="6.79409" height="22.0808" rx="2" fill="#0033A1"/>
<rect x="69.4219" y="79.3369" width="6.79409" height="22.0808" rx="2" transform="rotate(-90 69.4219 79.3369)" fill="#0033A1"/>
</svg>
