<svg width="156" height="156" viewBox="0 0 156 156" fill="none" xmlns="http://www.w3.org/2000/svg">
<circle cx="78" cy="78" r="74.5" stroke="#0033A1" stroke-width="7"/>
<path opacity="0.25" d="M66.3333 48.2383C65.4078 48.2383 64.5203 48.6199 63.8658 49.2987C63.2114 49.9775 62.8438 50.8978 62.8438 51.8578V99.6354C62.8438 100.595 63.2114 101.516 63.8658 102.194C64.5203 102.873 65.4078 103.255 66.3333 103.255H88.6667C89.5922 103.255 90.4797 102.873 91.1342 102.194C91.7886 101.516 92.1562 100.595 92.1562 99.6354V51.8578C92.1562 50.8978 91.7886 49.9775 91.1342 49.2987C90.4797 48.6199 89.5922 48.2383 88.6667 48.2383H66.3333Z" fill="#0033A1"/>
<path d="M66.3333 48.2427C65.4078 48.2427 64.5203 48.6243 63.8658 49.3031C63.2114 49.9819 62.8438 50.9022 62.8438 51.8622V99.6388C62.8438 100.599 63.2114 101.519 63.8658 102.198C64.5203 102.877 65.4078 103.258 66.3333 103.258H88.6667C89.5922 103.258 90.4797 102.877 91.1342 102.198C91.7886 101.519 92.1562 100.599 92.1562 99.6388V51.8622C92.1562 50.9022 91.7886 49.9819 91.1342 49.3031C90.4797 48.6243 89.5922 48.2427 88.6667 48.2427H66.3333ZM66.3333 43.8994H88.6667C90.7028 43.8994 92.6555 44.7382 94.0952 46.2315C95.5349 47.7249 96.3438 49.7503 96.3438 51.8622V99.6388C96.3438 101.751 95.5349 103.776 94.0952 105.269C92.6555 106.763 90.7028 107.602 88.6667 107.602H66.3333C64.2972 107.602 62.3445 106.763 60.9048 105.269C59.4651 103.776 58.6562 101.751 58.6562 99.6388V51.8622C58.6562 49.7503 59.4651 47.7249 60.9048 46.2315C62.3445 44.7382 64.2972 43.8994 66.3333 43.8994ZM70.5208 46.0711H84.4792C84.8494 46.0711 85.2044 46.2237 85.4662 46.4952C85.7279 46.7667 85.875 47.1349 85.875 47.5189V50.4144C85.875 50.7984 85.7279 51.1665 85.4662 51.438C85.2044 51.7095 84.8494 51.8622 84.4792 51.8622H70.5208C70.1506 51.8622 69.7956 51.7095 69.5339 51.438C69.2721 51.1665 69.125 50.7984 69.125 50.4144V47.5189C69.125 47.1349 69.2721 46.7667 69.5339 46.4952C69.7956 46.2237 70.1506 46.0711 70.5208 46.0711Z" fill="#0033A1"/>
</svg>
