<svg width="53" height="45" viewBox="0 0 53 45" fill="none" xmlns="http://www.w3.org/2000/svg">
<path d="M52.6278 36.2523C52.6278 36.2523 52.6894 38.9651 52.2579 40.0132C52.2579 40.0132 45.5993 44.3289 34.5016 44.3289V44.0823V44.3289C23.404 44.3289 16.7454 40.0132 16.7454 40.0132C16.3138 38.9034 16.3755 36.2523 16.3755 36.2523C16.2522 34.3411 16.3755 30.3952 19.8281 29.5321C24.3904 28.3607 28.1513 26.6344 28.1513 26.6344C28.8912 25.5862 29.0145 23.4284 29.0145 23.4284C27.5964 21.887 26.9799 19.9758 26.6716 18.3728C26.5483 18.4344 26.4867 18.4961 26.3634 18.4961C25.9318 18.4961 25.3769 17.8795 24.7604 15.4751C23.9589 12.5157 24.6987 11.8991 25.4386 11.8991C25.6235 11.8991 25.6235 11.8991 25.7468 11.9608V11.8991C25.7468 11.8991 23.6506 4.93229 28.7062 1.84961C28.7062 1.84961 27.843 1.10976 27.9047 0.123307C27.9047 0.123307 30.1859 0.369922 32.4054 0.369922C33.3919 0.369922 34.3783 0.308268 35.1182 0.184961C35.3648 0 35.6731 0 35.9813 0C38.0775 0.0616536 40.0505 1.66465 40.4204 3.20599H40.482C41.1602 3.20599 45.291 3.51426 43.3181 11.8375C43.3181 11.8375 43.3181 11.8375 43.3181 11.8991C43.4414 11.8991 43.5031 11.8375 43.6264 11.8375C44.3662 11.8375 45.0444 12.3924 44.3046 15.4134C43.688 17.8179 43.1331 18.4344 42.7016 18.4344C42.5783 18.4344 42.4549 18.3728 42.3316 18.2495C41.9617 19.9141 41.3452 21.8254 39.8655 23.4284H39.9272C39.9272 23.4284 40.0505 25.3396 40.667 26.3877C40.667 26.3877 44.6128 28.3607 49.1135 29.5321C52.5661 30.3336 52.7511 34.2794 52.6278 36.2523ZM13.971 36.314C13.9093 35.1426 13.9093 33.3546 14.4642 31.7516C14.8341 30.7035 15.3274 29.7787 16.0056 29.0388C16.8687 28.1757 17.9168 27.5592 19.1499 27.2509C20.6912 26.881 22.1093 26.3877 23.3423 25.9562C23.0957 25.8945 22.9724 25.8329 22.9108 25.8329C22.8491 25.8329 19.7664 24.9697 18.3484 24.2299C18.0401 24.0449 17.7935 23.8599 17.7935 23.8599V23.675V22.3803C17.7935 22.3803 21.9243 22.5036 23.8972 20.469C23.8972 20.469 20.9995 19.6675 21.5544 14.4269C22.0476 9.18639 20.9378 4.62402 16.7454 4.99394C16.7454 4.99394 14.9574 2.83607 11.3199 4.19245C10.0868 4.68567 6.75751 5.85709 6.94248 13.0706C7.06578 20.284 4.35302 20.3457 4.35302 20.3457C4.35302 20.3457 5.77106 22.3803 10.58 22.3803V23.8599C10.58 23.8599 10.3951 24.0449 10.0252 24.2299C8.60712 24.9697 5.52444 25.8329 5.46279 25.8329C5.40114 25.8945 4.47633 26.0178 2.62672 26.881C0.777116 27.7441 0.653809 29.5937 0.653809 29.5937V32.6764C3.42822 35.8824 12.0597 36.4373 13.971 36.5606C13.971 36.4373 13.971 36.3756 13.971 36.314Z" fill="#3A3A3A"/>
</svg>
