<svg width="39" height="55" viewBox="0 0 39 55" fill="none" xmlns="http://www.w3.org/2000/svg">
<path d="M32.3165 0.876465L27.8254 6.97976L32.3165 9.45562L36.347 3.122L32.3165 0.876465ZM25.7526 8.41921L14.9854 24.5412L20.7433 28.5716L23.7374 24.0805C23.3919 23.7926 23.104 23.5047 22.8161 23.1593C21.6645 21.6622 21.3191 19.5318 22.3555 17.459C23.6222 15.5014 25.0041 14.6377 26.7314 14.3498C27.883 14.2346 28.977 14.4073 29.9558 14.8104L31.9135 11.8739L25.7526 8.41921ZM27.4799 15.4438C25.9829 15.4438 24.3707 16.1347 23.3343 17.9772C21.6645 21.4319 24.4283 24.3108 27.8254 24.3108C30.6468 27.1897 32.3741 29.5505 32.3741 33.581C32.3741 39.9722 27.3072 45.73 21.0312 45.73C17.6341 45.73 14.4097 44.636 13.6611 42.2753H5.25471C7.55784 47.5149 13.1429 50.3938 19.419 50.3938C24.4859 50.3938 28.5164 50.3938 30.7619 49.2423C36.4046 45.7876 38.7077 39.9721 38.7077 33.6385C38.7077 28.4565 36.2894 22.8138 31.2225 18.2075C31.165 16.6529 29.4376 15.4438 27.4799 15.4438ZM27.1345 17.5742C28.4012 17.5742 29.4376 18.6106 29.4376 19.8773C29.4376 21.144 28.4012 22.1805 27.1345 22.1805C25.8678 22.1805 24.8313 21.144 24.8313 19.8773C24.8313 18.6106 25.8678 17.5742 27.1345 17.5742ZM13.7187 26.4988L11.5883 29.6656L17.3462 33.6961L19.4766 30.5293L13.7187 26.4988ZM2.95157 38.8206C1.8 38.8206 0.648438 39.3964 0.648438 40.6055C0.648438 41.6995 1.8 42.2753 2.95157 42.2753H4.10314C4.10314 41.6419 4.67892 41.1237 5.25471 41.1237H13.7763C14.7551 41.1813 14.9854 41.6995 15.043 42.2753H16.7704C17.9219 42.2753 19.0735 41.6995 19.0735 40.5479C19.0735 39.3964 17.9219 38.8206 16.7704 38.8206H2.95157ZM10.955 49.6453C9.11245 50.8544 6.40627 52.8121 6.40627 53.9061V55.0001H36.347V53.9061C36.347 52.8697 33.6984 51.2575 31.8559 49.8756C28.1133 52.0636 22.7009 51.603 19.3614 51.603C16.3673 51.5454 13.4884 50.8544 10.955 49.6453Z" fill="#3A3A3A"/>
</svg>
