<svg width="17" height="17" viewBox="0 0 17 17" fill="none" xmlns="http://www.w3.org/2000/svg">
<path d="M6.26514 7.07518V13.209L7.05231 13.4714C7.8854 13.7483 8.75748 13.8898 9.63536 13.8906H12.0855C12.5578 13.8904 13.0154 13.7266 13.3807 13.4272C13.746 13.1278 13.9963 12.7111 14.0892 12.2481L14.6004 9.69229C14.7067 9.16089 14.5978 8.60901 14.2975 8.15789C13.9972 7.70677 13.53 7.39333 12.9988 7.28645C12.8214 7.25296 12.6405 7.24152 12.4603 7.25239L10.0136 7.41595L10.2624 4.68979C10.2741 4.56715 10.2616 4.4434 10.2254 4.32562C10.1893 4.20784 10.1303 4.09836 10.0518 4.0034C9.9733 3.90845 9.87685 3.82991 9.76797 3.77227C9.65909 3.71462 9.53991 3.67902 9.41726 3.66748H9.33207C9.02056 3.66765 8.71439 3.74839 8.44331 3.90184C8.17222 4.0553 7.94542 4.27626 7.78497 4.54326L6.26514 7.07518Z" fill="white"/>
<path opacity="0.44" d="M4.2203 6.39368H2.17568C1.79928 6.39368 1.49414 6.69881 1.49414 7.07522V13.2091C1.49414 13.5855 1.79928 13.8906 2.17568 13.8906H4.2203C4.5967 13.8906 4.90184 13.5855 4.90184 13.2091V7.07522C4.90184 6.69881 4.5967 6.39368 4.2203 6.39368Z" fill="white"/>
</svg>
