<svg width="53" height="52" viewBox="0 0 53 52" fill="none" xmlns="http://www.w3.org/2000/svg">
<path d="M52.0122 18.668C52.0122 17.472 51.4922 16.432 50.7122 15.704C51.5442 14.976 52.0122 13.884 52.0122 12.74C52.0122 10.504 50.1922 8.684 47.9562 8.684V4.316C47.9562 1.924 46.0322 0 43.6402 0H30.6402C28.2482 0 26.3242 1.924 26.3242 4.316V8.632H25.2322C22.8922 8.632 20.6042 10.868 19.9802 12.948H19.8242C14.8842 12.948 12.4402 17.68 12.3882 17.784L2.61222 34.112L0.324219 41.964L2.40422 42.536L4.53622 35.1L14.2602 18.928C14.2602 18.876 16.1842 15.184 19.7722 15.184H37.0362C36.4122 19.084 32.4082 19.5 30.6402 19.5H23.0482C22.4242 19.5 21.9562 19.968 21.9562 20.592C21.9562 21.216 22.4242 21.684 23.0482 21.684H26.2202C25.7002 28.34 20.0842 33.592 13.2722 33.592C12.6482 33.592 12.1802 34.06 12.1802 34.684C12.1802 35.308 12.6482 35.776 13.2722 35.776C18.7842 35.776 23.6202 32.812 26.2722 28.392V34.684C26.2722 37.076 28.1962 39 30.5882 39H31.9402C29.2362 44.148 23.8282 47.684 17.5882 47.684H14.5202L13.7922 52H15.9762L16.3402 49.816H17.5882C25.0242 49.816 31.4202 45.344 34.3322 39H43.5882C45.9802 39 47.9042 37.076 47.9042 34.684C50.1402 34.684 51.9602 32.864 51.9602 30.628C51.9602 29.432 51.4402 28.392 50.6602 27.664C51.4922 26.936 51.9602 25.844 51.9602 24.7C51.9602 23.556 51.4402 22.464 50.6602 21.736C51.4922 20.904 52.0122 19.864 52.0122 18.668ZM47.9562 24.648C47.9562 23.92 48.1122 23.296 48.4762 22.828C49.2562 23.036 49.8282 23.764 49.8282 24.648C49.8282 25.532 49.2562 26.208 48.4762 26.468C48.1642 26 48.0082 25.376 47.9562 24.648ZM47.9562 18.668C47.9562 17.94 48.1122 17.316 48.4762 16.848C49.2562 17.056 49.8282 17.784 49.8282 18.668C49.8282 19.552 49.2562 20.228 48.4762 20.488C48.1642 20.02 48.0082 19.448 47.9562 18.668ZM49.8282 12.74C49.8282 13.624 49.2562 14.3 48.4762 14.56C48.1642 14.092 48.0082 13.52 47.9562 12.74C47.9562 12.012 48.1122 11.388 48.4762 10.92C49.2562 11.128 49.8282 11.856 49.8282 12.74ZM22.2682 13C22.8402 11.96 24.0362 10.816 25.1802 10.816H26.2722V13H22.2682ZM37.1402 36.816C35.9442 36.816 34.9562 35.828 34.9562 34.632C34.9562 33.436 35.9442 32.448 37.1402 32.448C38.3362 32.448 39.3242 33.436 39.3242 34.632C39.2722 35.88 38.3362 36.816 37.1402 36.816ZM45.7722 30.316H28.4562V21.684H30.6402C35.8922 21.684 39.3242 18.72 39.3242 14.092V13H28.4562V5.408H45.7722V30.316ZM48.4762 32.396C48.1642 31.928 48.0082 31.356 47.9562 30.576C47.9562 29.848 48.1122 29.224 48.4762 28.756C49.2562 28.964 49.8282 29.692 49.8282 30.576C49.8282 31.46 49.2562 32.188 48.4762 32.396Z" fill="#3A3A3A"/>
</svg>
