<svg width="52" height="52" viewBox="0 0 52 52" fill="none" xmlns="http://www.w3.org/2000/svg">
<path d="M51.0837 25.8855C51.0837 21.7621 47.8767 18.326 43.7533 17.8678C41.6916 13.5154 38.2555 10.0793 33.9031 8.01762C33.9031 3.6652 30.2379 0 25.8855 0C21.533 0 17.8678 3.89427 17.8678 8.2467C13.5154 10.3084 10.0793 13.7445 8.01762 18.0969C3.6652 18.0969 0 21.533 0 26.1145C0 30.696 3.6652 34.1322 8.01762 34.1322C10.0793 38.4846 13.5154 41.9207 17.8678 43.9824C17.8678 48.3348 21.533 52 25.8855 52C30.2379 52 33.9031 48.3348 33.9031 43.9824C38.2555 41.9207 41.6916 38.4846 43.7533 34.1322C47.8767 33.674 51.0837 30.2379 51.0837 25.8855ZM25.8855 5.26872C27.7181 5.26872 29.3216 6.87225 29.3216 8.70485C29.3216 8.93392 29.3216 9.163 29.3216 9.163C29.0925 10.9956 27.2599 12.37 25.4273 11.9119C23.5947 11.6828 22.2203 9.85022 22.6784 8.01762C22.9075 6.64317 24.2819 5.4978 25.8855 5.26872ZM5.26872 25.8855C5.26872 24.0529 6.87225 22.4493 8.70485 22.4493C10.5374 22.4493 12.141 24.0529 12.141 25.8855C12.141 27.7181 10.5374 29.3216 8.70485 29.3216C6.87225 29.3216 5.26872 27.9471 5.26872 25.8855ZM25.8855 46.5022C24.0529 46.5022 22.4493 44.8987 22.4493 43.0661C22.4493 41.2335 24.0529 39.63 25.8855 39.63C27.7181 39.63 29.3216 41.2335 29.3216 43.0661C29.3216 44.8987 27.7181 46.5022 25.8855 46.5022ZM32.7577 39.1718C30.467 35.2775 25.6564 34.1322 21.9912 36.1938C20.8458 36.8811 19.7004 37.7974 19.0132 39.1718C16.2643 37.7974 14.2026 35.5066 12.5991 32.7577C16.4934 30.467 17.6388 25.6564 15.5771 21.9912C14.8899 20.8458 13.9736 19.9295 12.5991 19.0132C13.9736 16.2643 16.2643 14.2026 19.0132 12.5991C21.304 16.4934 26.1145 17.8678 29.7797 15.5771C30.9251 14.8899 32.0705 13.7445 32.7577 12.5991C35.5066 13.9736 37.5683 16.2643 38.9427 19.0132C35.0485 21.304 33.9031 26.1145 35.9648 29.7797C36.652 30.9251 37.5683 32.0705 38.9427 32.7577C37.5683 35.5066 35.5066 37.7974 32.7577 39.1718ZM43.0661 29.5507C41.2335 29.5507 39.63 27.9471 39.63 26.1145C39.63 24.2819 41.2335 22.6784 43.0661 22.6784C44.8987 22.6784 46.5022 24.2819 46.5022 26.1145C46.5022 27.9471 44.8987 29.5507 43.0661 29.5507Z" fill="#3A3A3A"/>
</svg>
