<svg width="153" height="153" viewBox="0 0 153 153" fill="none" xmlns="http://www.w3.org/2000/svg">
<circle cx="76.3383" cy="76.3774" r="73.3383" fill="white"/>
<circle cx="76.3383" cy="76.3774" r="74.8383" stroke="#0033A1" stroke-opacity="0.07" stroke-width="3"/>
<g clip-path="url(#clip0)">
<path d="M107.607 51.872C107.607 52.0085 107.607 52.145 107.607 52.145L102.284 85.3136L97.2336 116.162C97.0971 117.117 96.2781 117.936 95.1861 117.8H94.9131C93.8212 117.663 93.0022 116.571 93.2752 115.479L98.0525 85.5866C95.4591 83.1297 86.5868 76.3048 74.8482 83.5392C71.0263 85.9961 66.6584 87.2246 62.2905 87.361C51.7803 87.361 44.6825 79.8538 44.546 79.7173C44.1365 79.1713 43.8635 78.4888 44 77.9428L49.1868 44.7742C49.3233 43.9552 49.8693 43.4092 50.5518 43.1362C51.2343 42.8632 52.0533 43.1362 52.5993 43.6822C53.1452 44.0917 63.9284 55.2844 77.8511 46.8216C94.7766 36.4479 107.061 50.3705 107.198 50.507C107.471 50.78 107.607 51.1895 107.607 51.599C107.744 51.599 107.744 51.7355 107.607 51.872Z" fill="#0033A1"/>
</g>
<defs>
<clipPath id="clip0">
<rect width="63.7438" height="74.8" fill="white" transform="translate(44 43)"/>
</clipPath>
</defs>
</svg>
