<svg width="153" height="153" viewBox="0 0 153 153" fill="none" xmlns="http://www.w3.org/2000/svg">
<circle cx="76.3383" cy="76.3383" r="73.8383" fill="#0033A1" stroke="#0033A1" stroke-width="4.69"/>
<g clip-path="url(#clip0)">
<path d="M98.5564 45.0913C85.7554 46.3534 77.1914 56.1795 77.1914 56.1795C77.1914 56.1795 68.7175 46.3534 55.9165 45.0913C43.1155 43.8293 29.9539 57.8923 36.9854 77.7248C44.017 97.5573 77.2815 118.201 77.2815 118.201C77.2815 118.201 110.546 97.5573 117.578 77.7248C124.519 57.8923 111.357 43.8293 98.5564 45.0913ZM93.7786 84.3056C93.7786 85.5677 92.787 86.4691 91.615 86.4691H82.1495V95.9347C82.1495 97.1066 81.1579 98.0982 79.986 98.0982H74.5771C73.315 98.0982 72.4135 97.1066 72.4135 95.9347V86.4691H62.8579C61.5958 86.4691 60.6943 85.4775 60.6943 84.3056V78.8967C60.6943 77.6347 61.686 76.7332 62.8579 76.7332H72.3234V67.2677C72.3234 66.0958 73.315 65.1041 74.4869 65.1041H79.8958C81.0677 65.1041 82.0594 66.0958 82.0594 67.2677V76.7332H91.5249C92.787 76.7332 93.6884 77.7248 93.6884 78.8967L93.7786 84.3056ZM112.89 66.5465C112.89 66.9972 112.8 67.448 112.71 67.8086C112.619 68.2593 112.619 68.6199 112.529 68.9805C112.439 69.3411 112.349 69.7017 112.259 70.0623C112.079 70.7834 111.808 71.4145 111.628 71.9554C111.448 72.4962 111.177 72.947 110.997 73.3076C110.636 74.0288 110.366 74.4795 110.366 74.4795C110.366 74.4795 110.366 74.0288 110.546 73.2174C110.636 72.8568 110.636 72.3159 110.726 71.7751C110.817 71.2342 110.817 70.6031 110.907 69.882C110.907 69.5214 110.907 69.1608 110.907 68.8002C110.907 68.6199 110.907 68.4396 110.907 68.2593C110.907 68.079 110.907 67.8987 110.907 67.7184C110.907 67.5381 110.907 67.3578 110.907 67.1775C110.907 66.9972 110.907 66.8169 110.907 66.5465C110.907 66.1859 110.817 65.7352 110.817 65.3746C110.817 64.9238 110.726 64.5632 110.636 64.1125C110.546 63.6618 110.456 63.3012 110.366 62.8504C110.276 62.3997 110.185 62.0391 110.005 61.5884C109.915 61.1376 109.735 60.777 109.554 60.4164C109.284 59.6051 108.833 58.8839 108.383 58.1628L108.202 57.8923L108.112 57.8022C108.112 57.8022 108.112 57.712 108.112 57.8022V57.6219C108.022 57.4416 107.842 57.2613 107.751 57.081C107.661 56.9007 107.481 56.7204 107.391 56.5401C107.301 56.3598 107.12 56.2696 107.03 56.0894C106.94 55.9091 106.76 55.8189 106.67 55.6386C106.58 55.4583 106.399 55.3682 106.219 55.278C105.949 55.0076 105.678 54.7371 105.408 54.5568C104.867 54.1061 104.236 53.7455 103.695 53.3849C103.154 53.1145 102.613 52.7539 102.072 52.6637C101.531 52.4834 101.081 52.3933 100.72 52.213C100.63 52.213 100.54 52.1229 100.45 52.1229H100.359H100.269C100.089 52.1229 99.9988 52.1229 99.9086 52.0327C99.7283 52.0327 99.548 51.9426 99.548 51.9426C99.548 51.9426 99.6382 51.9426 99.9086 51.8524C100.089 51.7623 100.45 51.6721 100.9 51.6721C101.081 51.6721 101.351 51.6721 101.621 51.582C101.892 51.582 102.162 51.582 102.433 51.582C102.703 51.582 103.064 51.582 103.424 51.6721C103.785 51.7623 104.146 51.8524 104.506 51.9426C104.867 52.0327 105.227 52.213 105.588 52.3031C105.768 52.3933 105.949 52.4834 106.129 52.5736C106.309 52.6637 106.489 52.7539 106.67 52.844C106.76 53.1145 107.12 53.3849 107.481 53.6554C107.661 53.7455 107.842 53.9258 108.022 54.1061C108.202 54.2864 108.383 54.4667 108.563 54.5568C108.743 54.7371 108.923 54.9174 109.104 55.0977C109.284 55.278 109.374 55.4583 109.554 55.6386C109.735 55.8189 109.825 55.9992 110.005 56.1795L110.095 56.2696L110.185 56.3598L110.276 56.5401L110.456 56.8105C110.997 57.6219 111.448 58.5233 111.898 59.4248C112.619 61.3179 112.98 63.3012 112.98 65.1943C112.98 65.645 112.98 66.0958 112.89 66.5465Z" fill="white"/>
</g>
<defs>
<clipPath id="clip0">
<rect width="84.4685" height="73.2" fill="white" transform="translate(35 45)"/>
</clipPath>
</defs>
</svg>
