<svg width="153" height="153" viewBox="0 0 153 153" fill="none" xmlns="http://www.w3.org/2000/svg">
<circle cx="76.3383" cy="76.3383" r="73.8383" fill="#0033A1" stroke="#0033A1" stroke-width="4.69"/>
<g clip-path="url(#clip0)">
<path d="M76.1899 115.4C75.6547 115.4 74.941 115.4 74.2273 115.043C68.4288 112.635 63.2547 109.512 58.8835 105.944L58.705 105.766L56.3856 103.446C50.9439 97.6477 48 90.7786 48 83.9988V61.0722C48 59.6448 48.5353 58.3067 49.6058 57.3254L49.8734 57.147C50.8547 56.4333 51.9252 56.0765 53.2633 56.0765H53.8878C54.7799 56.1657 55.9396 56.1657 57.0101 56.1657C66.5554 56.1657 72.5324 50.3671 72.6216 50.2779C73.5137 49.3858 74.8518 48.8506 76.1899 48.8506C77.5281 48.8506 78.8662 49.3858 79.7583 50.2779C79.7583 50.2779 86.0029 56.1657 95.3698 56.1657C96.3511 56.1657 97.5108 56.1657 98.4921 56.0765H99.1165C100.187 56.0765 101.168 56.3441 102.239 57.0578L102.506 57.2362L102.685 57.4146C103.755 58.4851 104.291 59.6448 104.291 61.1614V83.9988C104.647 86.229 104.469 93.5441 98.3137 101.216C97.154 102.911 95.5482 104.338 93.764 105.944L93.4072 105.855C89.3928 109.423 84.3079 112.546 78.0633 115.133L77.9741 115.222C77.1712 115.4 76.7252 115.4 76.1899 115.4ZM75.9223 110.94C76.0115 110.94 76.1007 110.94 76.1899 110.94C76.2791 110.94 76.3683 110.94 76.4576 110.94C82.1669 108.62 86.895 105.766 90.4633 102.554L90.5525 102.465C92.1583 101.038 93.4964 99.7887 94.4777 98.4506L94.5669 98.3614C100.455 91.1355 99.741 84.8017 99.741 84.7125L99.6518 84.4448V84.1772V61.0722C99.6518 60.8938 99.6518 60.8045 99.5626 60.7153C99.295 60.5369 99.1165 60.5369 98.9381 60.5369H98.7597C97.6 60.7153 96.3511 60.7153 95.1914 60.7153C83.9511 60.7153 76.5468 53.6679 76.4576 53.5786C76.3683 53.5786 76.1899 53.4894 76.0115 53.4894C75.8331 53.4894 75.6547 53.5786 75.5655 53.5786C75.2978 53.8463 68.1611 60.7153 56.8317 60.7153C55.7612 60.7153 54.5122 60.7153 53.2633 60.5369H53.0849C52.8173 60.5369 52.6388 60.5369 52.5496 60.6261C52.4604 60.8045 52.3712 60.8938 52.3712 61.0722V83.9988C52.3712 89.7081 54.8691 95.5067 59.5079 100.413L61.7381 102.643C65.7525 105.855 70.4806 108.71 75.9223 110.94Z" fill="white"/>
<path d="M118.653 48.3151H112.23V41.9813C112.23 41.446 111.784 41 111.249 41H107.591C107.056 41 106.61 41.446 106.61 41.9813V48.4043H100.276C99.741 48.4043 99.2949 48.8504 99.2949 49.3856V53.0432C99.2949 53.5784 99.741 54.0245 100.276 54.0245H106.699V60.3583C106.699 60.8935 107.145 61.3396 107.681 61.3396H111.338C111.873 61.3396 112.319 60.8935 112.319 60.3583V53.9353H118.742C119.278 53.9353 119.724 53.4892 119.724 52.954V49.2964C119.545 48.7612 119.099 48.3151 118.653 48.3151Z" fill="white"/>
<path d="M75.6546 77.0405C80.3351 77.0405 84.1295 73.2462 84.1295 68.5656C84.1295 63.8851 80.3351 60.0908 75.6546 60.0908C70.9741 60.0908 67.1798 63.8851 67.1798 68.5656C67.1798 73.2462 70.9741 77.0405 75.6546 77.0405Z" fill="white"/>
<path d="M75.6546 78.2891C69.2316 78.2891 64.1467 83.374 64.1467 89.797V101.394H87.5194V89.8862C87.2518 83.5524 82.1669 78.2891 75.6546 78.2891Z" fill="white"/>
</g>
<defs>
<clipPath id="clip0">
<rect width="71.7237" height="74.4" fill="white" transform="translate(48 41)"/>
</clipPath>
</defs>
</svg>
