<svg width="157" height="157" viewBox="0 0 157 157" fill="none" xmlns="http://www.w3.org/2000/svg">
<circle cx="76.3383" cy="76.3774" r="73.3383" fill="white"/>
<circle cx="76.3383" cy="76.3774" r="74.8383" stroke="#0033A1" stroke-opacity="0.07" stroke-width="3"/>
<path d="M97.0143 86.3372C94.9433 85.8917 93.3048 86.8532 91.8541 87.693C90.3684 88.5584 87.5433 90.8501 85.924 90.2636C77.6333 86.85 69.8357 79.5934 66.4602 71.2695C65.8653 69.6156 68.1464 66.7725 69.0054 65.2693C69.8389 63.8141 70.7806 62.1602 70.3511 60.0736C69.963 58.1986 64.9427 51.8106 63.1675 50.0637C61.9967 48.9099 60.7974 48.2752 59.5662 48.1727C54.9372 47.9739 49.7675 54.1504 48.8608 55.628C46.5893 58.7787 46.602 62.9711 48.8989 68.0546C54.4346 81.7089 75.3713 102.315 89.0768 108.059C91.606 109.242 93.9188 109.835 95.9963 109.835C98.0292 109.835 99.8394 109.267 101.395 108.142C102.569 107.466 108.999 102.04 108.83 97.2862C108.728 96.0746 108.095 94.8631 106.956 93.69C105.222 91.8982 98.8755 86.7282 97.0143 86.3372Z" fill="#0033A1"/>
</svg>
