<svg width="47" height="54" viewBox="0 0 47 54" fill="none" xmlns="http://www.w3.org/2000/svg">
<path d="M29.1713 12.4347C29.1124 12.3168 29.0535 12.2579 28.9945 12.1989C28.9945 12.1989 28.9945 12.14 28.9356 12.14C28.8767 12.0811 28.8177 12.0221 28.6999 11.9632H28.6409C28.582 11.9043 28.5231 11.9043 28.4052 11.8453H28.3463C28.2874 11.7864 28.2284 11.7864 28.1106 11.7864H22.2174V9.42912C22.2174 8.78087 21.687 8.25048 21.0387 8.25048C20.3905 8.25048 19.8601 8.78087 19.8601 9.42912V11.7864H13.9669C13.849 11.7864 13.7901 11.7864 13.6722 11.8453H13.6133C13.5544 11.8453 13.4954 11.9043 13.3776 11.9632H13.3186C13.2597 12.0221 13.1418 12.0811 13.0829 12.14C13.0829 12.14 13.0829 12.1989 13.024 12.1989C12.965 12.2579 12.9061 12.3168 12.9061 12.3757C12.9061 12.3757 12.9061 12.3757 12.9061 12.4347L10.5488 17.1492C10.4899 17.326 10.431 17.5028 10.431 17.6796C10.431 19.6244 12.0221 21.2155 13.9669 21.2155C15.9116 21.2155 17.5028 19.6244 17.5028 17.6796C17.5028 17.5028 17.4439 17.326 17.3849 17.1492L15.8527 14.1437H19.8601V22.3942H18.0921C17.4439 22.3942 16.9135 22.9245 16.9135 23.5728V28.2874H14.5562C13.908 28.2874 13.3776 28.8177 13.3776 29.466C13.3776 30.1143 13.908 30.6446 14.5562 30.6446H18.0921H23.9853H27.5212C28.1695 30.6446 28.6999 30.1143 28.6999 29.466C28.6999 28.8177 28.1695 28.2874 27.5212 28.2874H25.164V23.5728C25.164 22.9245 24.6336 22.3942 23.9853 22.3942H22.2174V14.1437H26.2247L24.6925 17.1492C24.6336 17.326 24.5746 17.5028 24.5746 17.6796C24.5746 19.6244 26.1658 21.2155 28.1106 21.2155C30.0553 21.2155 31.6465 19.6244 31.6465 17.6796C31.6465 17.5028 31.5875 17.326 31.5286 17.1492L29.1713 12.4347ZM13.9669 18.8582C13.3776 18.8582 12.9061 18.4457 12.7882 17.9153L13.9669 15.617L15.1455 17.9153C15.0277 18.4457 14.5562 18.8582 13.9669 18.8582ZM22.8067 28.2874H19.2708V24.7514H22.8067V28.2874ZM28.1106 18.8582C27.5212 18.8582 27.0498 18.4457 26.9319 17.9153L28.1106 15.617L29.2892 17.9153C29.1713 18.4457 28.6999 18.8582 28.1106 18.8582ZM45.908 28.3463L42.431 24.3389V21.2155C42.431 9.48805 32.943 0 21.2155 0C9.48805 0 0 9.48805 0 21.2155C0 24.2211 0.648252 27.2266 1.88582 29.9375C2.7698 31.9411 4.12524 33.5323 5.42174 35.0645C5.8932 35.5949 6.36466 36.1842 6.77718 36.7736C8.42727 38.8951 9.60592 41.1345 10.2542 43.3739C11.0792 46.3205 11.1971 49.3261 11.1971 51.8602C11.1971 52.5084 11.7275 53.0388 12.3757 53.0388H28.8767C29.5249 53.0388 30.0553 52.5084 30.0553 51.8602C30.0553 48.6189 32.7073 45.967 35.9485 45.967H36.5378C39.7791 45.967 42.431 43.315 42.431 40.0738V34.1806H43.1972C44.6115 34.1806 45.8491 33.4144 46.4384 32.1179C47.0277 30.8804 46.792 29.4071 45.908 28.3463ZM44.3169 31.1161C44.2579 31.2929 43.9633 31.8233 43.2561 31.8233H41.3113C40.6631 31.8233 40.1327 32.3537 40.1327 33.0019V40.0738C40.1327 42.0185 38.5415 43.6097 36.5968 43.6097H36.0074C31.8822 43.6097 28.4052 46.6741 27.8748 50.6815H13.5544C13.4954 48.3242 13.3186 45.4955 12.4936 42.7257C11.7864 40.1916 10.4899 37.7165 8.663 35.3592C8.19155 34.7699 7.72009 34.1806 7.24864 33.5912C6.01106 32.1179 4.83242 30.7036 4.06631 28.9945C2.9466 26.5783 2.41621 23.8675 2.41621 21.2155C2.41621 10.8435 10.9024 2.35728 21.2744 2.35728C31.6465 2.35728 40.1327 10.8435 40.1327 21.2155V24.7514C40.1327 25.0461 40.2506 25.2818 40.4273 25.5176L44.1401 29.8785C44.5526 30.4089 44.3758 30.9982 44.3169 31.1161Z" fill="#D07D00"/>
</svg>
