<svg width="53" height="53" viewBox="0 0 53 53" fill="none" xmlns="http://www.w3.org/2000/svg">
<path d="M49.5996 25.6709H39.5818C39.6957 25.3758 39.757 25.0552 39.757 24.7231V3.40099C39.7677 1.96719 38.605 0.794355 37.1614 0.794355H15.8386C14.4054 0.794355 13.2326 1.96711 13.2326 3.40037V24.7231C13.2326 25.0552 13.2939 25.3758 13.4078 25.6709H3.40037C1.96711 25.6709 0.794355 26.8436 0.794355 28.2769V49.5996C0.794355 51.0329 1.96711 52.2056 3.40037 52.2056H24.7231C25.4106 52.2056 26.0359 51.9423 26.5 51.5048C26.9641 51.9423 27.5894 52.2056 28.2769 52.2056H49.5996C51.0329 52.2056 52.2056 51.0329 52.2056 49.5996V28.2769C52.2056 26.8442 51.0439 25.6709 49.5996 25.6709ZM14.8909 24.7231V3.40037C14.8909 2.88008 15.3183 2.45259 15.8386 2.45259H37.1614C37.6817 2.45259 38.1091 2.88008 38.1091 3.40037V24.7231C38.1091 25.2434 37.6817 25.6709 37.1614 25.6709H28.2769H24.7335H15.849C15.3171 25.6709 14.8909 25.2422 14.8909 24.7231ZM24.7231 50.5474H3.40037C2.88008 50.5474 2.45259 50.1199 2.45259 49.5996V28.2769C2.45259 27.7566 2.88008 27.3291 3.40037 27.3291H15.8386H24.7231C25.2434 27.3291 25.6709 27.7566 25.6709 28.2769V49.5996C25.6709 50.1199 25.2434 50.5474 24.7231 50.5474ZM50.5474 49.5996C50.5474 50.1199 50.1199 50.5474 49.5996 50.5474H28.2769C27.7566 50.5474 27.3291 50.1199 27.3291 49.5996V28.2769C27.3291 27.7566 27.7566 27.3291 28.2769 27.3291H37.1614H49.5996C50.1199 27.3291 50.5474 27.7566 50.5474 28.2769V49.5996Z" fill="#0033A1" stroke="#0033A1" stroke-width="0.41129"/>
<path d="M4.94801 44.5183L4.94808 44.5181L12.5544 31.5812L4.94801 44.5183ZM4.94801 44.5183C4.63089 45.0585 4.61851 45.7193 4.93665 46.2731C5.25352 46.8247 5.81994 47.1556 6.45543 47.1556H21.6578C22.2933 47.1556 22.8597 46.8247 23.1765 46.2731C23.4951 45.7186 23.4816 45.069 23.1662 44.5199L23.1652 44.5182M4.94801 44.5183L23.1652 44.5182M23.1652 44.5182L15.5692 31.5812C15.2512 31.0394 14.6844 30.7211 14.0618 30.7211M23.1652 44.5182L14.0618 30.7211M14.0618 30.7211C13.4392 30.7211 12.8725 31.0394 12.5544 31.5811L14.0618 30.7211ZM21.7516 45.4414L21.7475 45.4481L21.7446 45.4539C21.7443 45.4544 21.7427 45.4571 21.7394 45.4612C21.7348 45.467 21.7287 45.4734 21.7214 45.4792C21.7082 45.4896 21.6921 45.4974 21.6681 45.4974H6.45543C6.42622 45.4974 6.40942 45.4885 6.39906 45.4807C6.3931 45.4762 6.38869 45.4714 6.38592 45.4678C6.38546 45.4673 6.3851 45.4668 6.3848 45.4663L6.38047 45.4555L6.37199 45.4414C6.36855 45.4356 6.36277 45.4227 6.36126 45.408C6.36008 45.3965 6.36091 45.3812 6.37312 45.3601C6.37318 45.36 6.37323 45.3599 6.37328 45.3598L13.978 32.436C13.9945 32.4097 14.0103 32.401 14.0209 32.3968C14.0347 32.3911 14.0494 32.3897 14.0618 32.3897C14.0742 32.3897 14.0889 32.3911 14.1027 32.3968C14.1133 32.401 14.1291 32.4097 14.1456 32.4359L21.7507 45.3708L21.7505 45.3709L21.7544 45.377C21.7592 45.3845 21.761 45.3901 21.7618 45.394C21.7627 45.3982 21.763 45.403 21.7624 45.4087C21.761 45.4221 21.7553 45.4351 21.7516 45.4414Z" fill="#0033A1" stroke="#0033A1" stroke-width="0.41129"/>
<path d="M35.6212 14.0621C35.6212 9.03352 31.5285 4.94084 26.4999 4.94084C21.4713 4.94084 17.3786 9.03352 17.3786 14.0621C17.3786 19.0907 21.4713 23.1834 26.4999 23.1834C31.5285 23.1834 35.6212 19.0907 35.6212 14.0621ZM19.0368 14.0621C19.0368 9.94649 22.3842 6.59907 26.4999 6.59907C30.6155 6.59907 33.9629 9.94649 33.9629 14.0621C33.9629 18.1778 30.6155 21.5252 26.4999 21.5252C22.3842 21.5252 19.0368 18.1778 19.0368 14.0621Z" fill="#0033A1" stroke="#0033A1" stroke-width="0.41129"/>
<path d="M38.3359 29.4515L38.1904 29.3061C38.3843 29.1123 38.6545 28.9965 38.9386 28.9965C39.2207 28.9965 39.4811 29.1006 39.6867 29.3061M38.3359 29.4515L48.4257 38.3256C48.7582 38.6581 48.7582 39.1985 48.4257 39.531M38.3359 29.4515L38.1904 29.3061L29.3558 38.1408M38.3359 29.4515L48.5711 39.6764M39.6867 29.3061L39.5412 29.4515L39.6866 29.306L39.6867 29.3061ZM39.6867 29.3061L48.571 38.1801L48.5711 38.1802C48.9839 38.593 48.984 39.2635 48.5712 39.6763L48.4257 39.531M48.4257 39.531L48.5711 39.6764M48.4257 39.531L39.5412 48.4259L48.5711 39.6764M48.5711 39.6764L39.6867 48.5712L39.6866 48.5713L39.6763 48.5817C39.4789 48.7791 39.207 48.8809 38.9386 48.8809C38.6701 48.8809 38.3982 48.7791 38.2008 48.5817L29.306 39.6868C28.9106 39.2914 28.8942 38.67 29.2457 38.2558M29.2457 38.2558L29.2457 38.3359M29.2457 38.2558C29.2609 38.2379 29.2768 38.2204 29.2933 38.2033L29.2945 38.202M29.2457 38.2558L29.2457 38.2509L29.2945 38.202M29.2457 38.3359L29.2457 38.3361L29.4303 38.336C29.2457 38.3361 29.2457 38.336 29.2457 38.3359ZM29.2457 38.3359L29.2457 38.3357L29.2457 38.3353L29.2457 38.3344L29.2458 38.3328L29.2459 38.3293L29.2462 38.3219C29.2466 38.3167 29.2472 38.3106 29.2484 38.3039C29.2504 38.2914 29.255 38.2716 29.2661 38.2493C29.2727 38.236 29.2823 38.2208 29.2958 38.2058C29.2997 38.2015 29.3039 38.1972 29.3084 38.193C29.3156 38.1863 29.3238 38.1798 29.3329 38.1737C29.3689 38.1497 29.4076 38.1408 29.441 38.1408H29.3558M29.3558 38.1408L29.306 38.1906L29.2945 38.202M29.3558 38.1408H29.3539L29.2945 38.202M46.9815 38.9387L38.9386 46.9816L30.8956 38.9387L38.9386 30.8958L46.9815 38.9387Z" fill="#0033A1" stroke="#0033A1" stroke-width="0.41129"/>
</svg>
