<svg width="48" height="65" viewBox="0 0 48 65" fill="none" xmlns="http://www.w3.org/2000/svg">
<path d="M24 26.0029C22.1441 26.0008 20.3649 25.2626 19.0526 23.9503C17.7403 22.638 17.0021 20.8588 17 19.0029V15.0029C17 14.7377 17.1054 14.4834 17.2929 14.2958C17.4804 14.1083 17.7348 14.0029 18 14.0029C18.3996 14.0243 18.7992 13.9613 19.1728 13.8181C19.5465 13.6748 19.8858 13.4546 20.1687 13.1717C20.4517 12.8887 20.6719 12.5494 20.8151 12.1757C20.9583 11.8021 21.0213 11.4025 21 11.0029C21 10.7377 21.1054 10.4834 21.2929 10.2958C21.4804 10.1083 21.7348 10.0029 22 10.0029C22.2652 10.0029 22.5196 10.1083 22.7071 10.2958C22.8946 10.4834 23 10.7377 23 11.0029C23.006 11.1029 23.23 14.0029 30 14.0029C30.2652 14.0029 30.5196 14.1083 30.7071 14.2958C30.8946 14.4834 31 14.7377 31 15.0029V19.0029C30.9979 20.8588 30.2597 22.638 28.9474 23.9503C27.6351 25.2626 25.8559 26.0008 24 26.0029ZM19 15.9029V19.0029C19 20.329 19.5268 21.6008 20.4645 22.5385C21.4021 23.4761 22.6739 24.0029 24 24.0029C25.3261 24.0029 26.5979 23.4761 27.5355 22.5385C28.4732 21.6008 29 20.329 29 19.0029V15.9819C25.375 15.8229 23.393 14.8049 22.308 13.7289C21.9381 14.3014 21.4529 14.7905 20.8833 15.1648C20.3137 15.5392 19.6723 15.7906 19 15.9029Z" fill="#00943A"/>
<path d="M31 20.0029H30V18.0029H31C31.2652 18.0029 31.5196 17.8976 31.7071 17.71C31.8946 17.5225 32 17.2681 32 17.0029V16.0029H30V14.0029H32C32.5304 14.0029 33.0391 14.2136 33.4142 14.5887C33.7893 14.9638 34 15.4725 34 16.0029V17.0029C34 17.7986 33.6839 18.5616 33.1213 19.1243C32.5587 19.6869 31.7956 20.0029 31 20.0029Z" fill="#00943A"/>
<path d="M18 20.0029H17C16.2044 20.0029 15.4413 19.6869 14.8787 19.1243C14.3161 18.5616 14 17.7986 14 17.0029V16.0029C14 15.4725 14.2107 14.9638 14.5858 14.5887C14.9609 14.2136 15.4696 14.0029 16 14.0029H18V16.0029H16V17.0029C16 17.2681 16.1054 17.5225 16.2929 17.71C16.4804 17.8976 16.7348 18.0029 17 18.0029H18V20.0029Z" fill="#00943A"/>
<path d="M33 15.0027H31V13.0027C31.0003 11.7738 30.6771 10.5665 30.0629 9.50209C29.4486 8.4377 28.565 7.55377 27.5008 6.93918C26.4366 6.32459 25.2294 6.00098 24.0005 6.0009C22.7715 6.00082 21.5643 6.32427 20.5 6.93872L19.5 5.20772C20.8682 4.41778 22.4203 4.00192 24.0002 4.00195C25.5801 4.00199 27.1321 4.41791 28.5003 5.20792C29.8685 5.99792 31.0047 7.13417 31.7945 8.50245C32.5844 9.87074 33.0001 11.4228 33 13.0027V15.0027Z" fill="#00943A"/>
<path d="M17 15.0029H15V13.0029C15 11.7261 15.2717 10.4638 15.797 9.3C16.3224 8.1362 17.0894 7.09751 18.047 6.25293L19.37 7.75293C18.6251 8.40982 18.0286 9.21768 17.62 10.1229C17.2113 11.028 17 12.0098 17 13.0029V15.0029Z" fill="#00943A"/>
<path d="M26.981 6.66946L25.491 5.33546C25.748 5.04757 25.9163 4.69146 25.9754 4.3101C26.0346 3.92874 25.9821 3.53841 25.8244 3.18619C25.6667 2.83397 25.4104 2.53491 25.0865 2.32507C24.7626 2.11523 24.385 2.00357 23.999 2.00357C23.6131 2.00357 23.2354 2.11523 22.9116 2.32507C22.5877 2.53491 22.3314 2.83397 22.1737 3.18619C22.016 3.53841 21.9635 3.92874 22.0227 4.3101C22.0818 4.69146 22.25 5.04757 22.507 5.33546L21.016 6.66546C20.5016 6.08982 20.1647 5.37759 20.0461 4.61473C19.9274 3.85187 20.0321 3.07097 20.3474 2.36627C20.6627 1.66157 21.1752 1.06317 21.8231 0.643296C22.471 0.223419 23.2265 0 23.9985 0C24.7706 0 25.5261 0.223419 26.174 0.643296C26.8218 1.06317 27.3344 1.66157 27.6497 2.36627C27.965 3.07097 28.0697 3.85187 27.951 4.61473C27.8324 5.37759 27.4955 6.08982 26.981 6.66546V6.66946Z" fill="#00943A"/>
<path d="M25.0001 64.002H18.1421C17.3467 64.0029 16.5805 63.7022 15.9981 63.1603C15.4158 62.6185 15.0606 61.876 15.0042 61.0825C14.9479 60.2891 15.1946 59.5038 15.6945 58.8851C16.1945 58.2665 16.9105 57.8604 17.6981 57.749L24.7151 57.026L26.5511 56.104L27.4511 57.891L25.4511 58.891C25.3425 58.9444 25.2254 58.9783 25.1051 58.991L17.9441 59.728C17.6632 59.7784 17.4113 59.9322 17.238 60.1589C17.0647 60.3857 16.9825 60.6691 17.0075 60.9534C17.0326 61.2377 17.1631 61.5023 17.3735 61.6953C17.5838 61.8882 17.8587 61.9955 18.1441 61.996H24.9231L40.6411 59.489C41.3315 59.3881 41.958 59.0296 42.3949 58.4856C42.8317 57.9416 43.0463 57.2523 42.9957 56.5565C42.945 55.8606 42.6328 55.2097 42.1217 54.7347C41.6107 54.2597 40.9388 53.9958 40.2411 53.996H39.2111C37.216 53.9953 35.2332 54.3095 33.3361 54.927L29.4311 56.89L28.5311 55.102L32.5021 53.102C32.5462 53.0798 32.592 53.0611 32.6391 53.046C34.7595 52.3502 36.9775 51.9978 39.2091 52.002H40.2391C41.4412 52.0009 42.5993 52.4546 43.4808 53.2721C44.3622 54.0896 44.9018 55.2102 44.9912 56.409C45.0806 57.6079 44.7131 58.7961 43.9626 59.7352C43.2121 60.6744 42.1341 61.2948 40.9451 61.472L25.1581 63.989C25.1059 63.9978 25.053 64.0021 25.0001 64.002Z" fill="#00943A"/>
<path d="M15.83 62.9879L7.03001 61.4689C5.84437 61.2855 4.77172 60.6611 4.0266 59.7208C3.28148 58.7805 2.91884 57.5935 3.01121 56.3974C3.10359 55.2012 3.64416 54.084 4.52482 53.2692C5.40547 52.4544 6.56126 52.0022 7.76101 52.0029H8.79101C11.0232 52.002 13.2412 52.3578 15.361 53.0569L20.386 55.0729L19.641 56.9289L14.676 54.9349C12.7758 54.3157 10.7896 54.0012 8.79101 54.0029H7.76101C7.06486 54.0038 6.39475 54.2677 5.88485 54.7416C5.37495 55.2156 5.06291 55.8646 5.0112 56.5588C4.95949 57.2531 5.17193 57.9412 5.60599 58.4855C6.04005 59.0297 6.66368 59.3899 7.35201 59.4939L16.17 61.0179L15.83 62.9879Z" fill="#00943A"/>
<path d="M34.071 53.3739L32.461 49.3499C32.2559 48.8319 31.9461 48.3618 31.551 47.9689C30.7381 47.1671 30.1666 46.1533 29.9014 45.0427C29.6362 43.9322 29.6881 42.7695 30.051 41.6869C30.1002 41.5396 30.1831 41.4057 30.293 41.2959L32.232 39.3569C32.7237 38.8652 33 38.1983 33 37.5029C33 36.8075 32.7237 36.1406 32.232 35.6489L30.293 33.7099C30.1055 33.5224 30.0001 33.2681 30 33.0029V28.0029H32V32.5889L33.646 34.2349C34.0753 34.664 34.4158 35.1735 34.6481 35.7342C34.8804 36.295 34.9999 36.896 34.9999 37.5029C34.9999 38.1099 34.8804 38.7109 34.6481 39.2716C34.4158 39.8323 34.0753 40.3418 33.646 40.7709L31.883 42.5329C31.6891 43.2338 31.6851 43.9736 31.8714 44.6765C32.0576 45.3794 32.4275 46.0201 32.943 46.5329C33.5387 47.1214 34.007 47.8259 34.319 48.6029L35.929 52.6279L34.071 53.3739Z" fill="#00943A"/>
<path d="M38 44.0029H36V34.0029C35.9984 32.6773 35.4711 31.4065 34.5338 30.4691C33.5964 29.5318 32.3256 29.0045 31 29.0029H29C28.2044 29.0029 27.4413 28.6869 26.8787 28.1243C26.3161 27.5616 26 26.7986 26 26.0029V24.0029H28V26.0029C28 26.2681 28.1054 26.5225 28.2929 26.71C28.4804 26.8976 28.7348 27.0029 29 27.0029H31C32.8559 27.005 34.6351 27.7432 35.9474 29.0555C37.2597 30.3678 37.9979 32.1471 38 34.0029V44.0029Z" fill="#00943A"/>
<path d="M45 54.0029H40.657C40.0002 54.0045 39.3496 53.8759 38.7428 53.6244C38.136 53.373 37.5851 53.0037 37.122 52.5379L32.811 48.9739C32.2438 48.5051 31.7873 47.9167 31.4742 47.2507C31.1611 46.5848 30.9992 45.8578 31 45.1219V41.0029H33V45.1219C32.9997 45.5635 33.0969 45.9996 33.2846 46.3993C33.4724 46.7989 33.746 47.1522 34.086 47.4339L38.466 51.0609C38.7509 51.3548 39.0912 51.5894 39.4673 51.7511C39.8433 51.9127 40.2477 51.9983 40.657 52.0029H45C45.2652 52.0029 45.5196 51.8976 45.7071 51.71C45.8946 51.5225 46 51.2681 46 51.0029V50.0029C46 49.7377 45.8946 49.4834 45.7071 49.2958C45.5196 49.1083 45.2652 49.0029 45 49.0029H44C43.7348 49.0029 43.4804 49.1083 43.2929 49.2958C43.1054 49.4834 43 49.7377 43 50.0029C43.0001 50.1914 42.9469 50.376 42.8466 50.5355C42.7463 50.695 42.603 50.823 42.4332 50.9046C42.2633 50.9862 42.0739 51.0182 41.8867 50.9969C41.6995 50.9755 41.5221 50.9017 41.375 50.7839L36.375 46.7839L37.625 45.2219L41.51 48.3309C41.7843 47.9223 42.1549 47.5875 42.5891 47.3559C43.0233 47.1243 43.5079 47.0031 44 47.0029H45C45.7957 47.0029 46.5587 47.319 47.1213 47.8816C47.6839 48.4442 48 49.2073 48 50.0029V51.0029C48 51.7986 47.6839 52.5616 47.1213 53.1242C46.5587 53.6869 45.7957 54.0029 45 54.0029Z" fill="#00943A"/>
<path d="M43 50.0029H41V51.0029H43V50.0029Z" fill="#00943A"/>
<path d="M13.929 53.3739L12.071 52.6319L13.681 48.6069C13.9878 47.837 14.4489 47.1379 15.036 46.5529C15.5577 46.0397 15.933 45.3966 16.123 44.6899C16.313 43.9832 16.311 43.2386 16.117 42.5329L14.354 40.7709C13.9248 40.3418 13.5843 39.8323 13.352 39.2716C13.1197 38.7109 13.0001 38.1099 13.0001 37.5029C13.0001 36.896 13.1197 36.295 13.352 35.7342C13.5843 35.1735 13.9248 34.664 14.354 34.2349L16 32.5889V28.0029H18V33.0029C18 33.2681 17.8946 33.5224 17.707 33.7099L15.768 35.6489C15.2763 36.1406 15.0001 36.8075 15.0001 37.5029C15.0001 38.1983 15.2763 38.8652 15.768 39.3569L17.707 41.2959C17.817 41.4057 17.8998 41.5396 17.949 41.6869C18.312 42.764 18.366 43.9213 18.1049 45.0275C17.8439 46.1337 17.2782 47.1447 16.472 47.9459C16.0675 48.343 15.7498 48.8197 15.539 49.3459L13.929 53.3739Z" fill="#00943A"/>
<path d="M12 34.0029H10C10.0021 32.1471 10.7403 30.3678 12.0526 29.0555C13.3649 27.7432 15.1441 27.005 17 27.0029H19C19.2652 27.0029 19.5196 26.8976 19.7071 26.71C19.8946 26.5225 20 26.2681 20 26.0029V24.0029H22V26.0029C22 26.7986 21.6839 27.5616 21.1213 28.1243C20.5587 28.6869 19.7956 29.0029 19 29.0029H17C15.6744 29.0045 14.4036 29.5318 13.4662 30.4691C12.5289 31.4065 12.0016 32.6773 12 34.0029Z" fill="#00943A"/>
<path d="M7.343 54.0029H3C2.20435 54.0029 1.44129 53.6869 0.878679 53.1242C0.31607 52.5616 0 51.7986 0 51.0029V50.0029C0 49.2073 0.31607 48.4442 0.878679 47.8816C1.44129 47.319 2.20435 47.0029 3 47.0029H4C4.49213 47.0031 4.97667 47.1243 5.4109 47.3559C5.84513 47.5875 6.21572 47.9223 6.49 48.3309L10 45.5229V36.0029H12V46.0029C12.0001 46.1529 11.9664 46.301 11.9015 46.4361C11.8366 46.5713 11.7421 46.6902 11.625 46.7839L6.625 50.7839C6.47791 50.9017 6.30053 50.9755 6.11331 50.9969C5.92609 51.0182 5.73665 50.9862 5.56682 50.9046C5.39698 50.823 5.25367 50.695 5.15338 50.5355C5.0531 50.376 4.99993 50.1914 5 50.0029C5 49.7377 4.89464 49.4834 4.70711 49.2958C4.51957 49.1083 4.26522 49.0029 4 49.0029H3C2.73478 49.0029 2.48043 49.1083 2.29289 49.2958C2.10536 49.4834 2 49.7377 2 50.0029V51.0029C2 51.2681 2.10536 51.5225 2.29289 51.71C2.48043 51.8976 2.73478 52.0029 3 52.0029H7.343C8.13821 52.0009 8.90047 51.685 9.464 51.1239L13.914 47.4329C14.2542 47.1516 14.528 46.7985 14.7157 46.399C14.9035 45.9995 15.0005 45.5634 15 45.1219V41.0029H17V45.1219C17.0009 45.8576 16.8391 46.5843 16.5262 47.2501C16.2132 47.9158 15.757 48.5042 15.19 48.9729L10.809 52.6029C9.88405 53.5093 8.63794 54.0126 7.343 54.0029Z" fill="#00943A"/>
<path d="M7 50.0029H5V51.0029H7V50.0029Z" fill="#00943A"/>
<path d="M25.9809 57.8057L24.0198 58.1981L25.0193 63.1982L26.9804 62.8058L25.9809 57.8057Z" fill="#00943A"/>
<path d="M24 32.0029C21.243 32.0029 19 30.2089 19 28.0029H21C21 29.0869 22.374 30.0029 24 30.0029C25.626 30.0029 27 29.0869 27 28.0029H29C29 30.2089 26.757 32.0029 24 32.0029Z" fill="#00943A"/>
<path d="M24 54.0023C13.53 54.0023 13 50.6703 13 50.0023H15C15.0008 49.9688 14.9981 49.9353 14.992 49.9023C15 49.9203 15.738 52.0023 24 52.0023C32.262 52.0023 33 49.9203 33.008 49.9023C33.0019 49.9353 32.9992 49.9688 33 50.0023H35C35 50.6703 34.469 54.0023 24 54.0023Z" fill="#00943A"/>
</svg>
