<svg width="49" height="57" viewBox="0 0 49 57" fill="none" xmlns="http://www.w3.org/2000/svg">
<path d="M29.4412 6.14945L29.5342 6.24249L29.6643 6.26213C40.5694 7.90818 48.6 17.3747 48.6 28.495C48.6 40.02 39.7471 49.7035 28.4164 51.1456L27.6073 51.2485L28.184 51.8252L30.0488 53.69C30.5544 54.3818 30.549 55.2233 30.0326 55.9118C29.7964 56.2268 29.3832 56.4435 28.9266 56.487C28.4743 56.53 28.0229 56.3993 27.7021 56.0785L22.6736 51.05L22.5824 50.9588L22.4552 50.9381C12.3646 49.2906 4.54183 41.0529 3.5127 30.969C2.27731 18.6125 11.3414 7.28972 23.6877 6.0551L24.5276 5.97111L23.9307 5.37425L21.8355 3.27903C21.1536 2.59715 21.1536 1.59329 21.8355 0.911408C22.5174 0.229531 23.5212 0.229531 24.2031 0.911408L29.4412 6.14945ZM27.1364 47.0691L26.3441 47.8614L27.4591 47.7499C36.0044 46.8954 43.0714 40.6981 44.5737 32.3426C46.7105 22.0716 40.0774 11.8045 29.5945 9.66512L29.3837 9.62212L29.2316 9.7742L23.9936 15.0122L23.7841 15.2218C23.4633 15.5425 23.0119 15.6733 22.5596 15.6302C22.103 15.5867 21.6898 15.37 21.4536 15.0551C20.9368 14.3661 20.939 13.337 21.6206 12.65L24.3382 10.1414L25.1844 9.36038L24.0362 9.4487C15.6822 10.0913 8.83491 16.3014 7.12326 24.4316L7.12277 24.4341C4.98443 34.9119 11.4028 44.9702 21.8841 47.3232L22.0989 47.3714L22.2545 47.2157L27.6812 41.7891C28.3729 41.2835 29.2145 41.2889 29.903 41.8053C30.218 42.0415 30.4347 42.4547 30.4782 42.9113C30.5212 43.3636 30.3905 43.815 30.0697 44.1358L27.1364 47.0691Z" fill="#4700A1" stroke="#F9F9F9" stroke-width="0.8"/>
<line x1="3.09632" y1="46.9375" x2="46.8809" y2="6.96032" stroke="#4700A1" stroke-width="3" stroke-linecap="round" stroke-linejoin="round"/>
</svg>
